<?xml version="1.0" encoding="UTF-8"?>
<!DOCTYPE svg PUBLIC "-//W3C//DTD SVG 1.1//EN" "http://www.w3.org/Graphics/SVG/1.1/DTD/svg11.dtd">
<!-- Creator: CorelDRAW 2020 (64-Bit) -->
<svg xmlns="http://www.w3.org/2000/svg" xml:space="preserve" width="200mm" height="200mm" version="1.1" style="shape-rendering:geometricPrecision; text-rendering:geometricPrecision; image-rendering:optimizeQuality; fill-rule:evenodd; clip-rule:evenodd"
viewBox="0 0 20000 20000"
 xmlns:xlink="http://www.w3.org/1999/xlink"
 xmlns:xodm="http://www.corel.com/coreldraw/odm/2003">
 <defs>
  <style type="text/css">
   <![CDATA[
    .str0 {stroke:#2B2A29;stroke-width:20;stroke-miterlimit:22.9256}
    .fil2 {fill:black}
    .fil0 {fill:aqua}
    .fil1 {fill:red}
   ]]>
  </style>
 </defs>
 <g id="Layer_x0020_1">
  <metadata id="CorelCorpID_0Corel-Layer"/>
  <path class="fil0" d="M9267.72 8917.8c-106.74,-15 -214.41,-22.53 -322.2,-22.53 -1278.59,0 -2315.1,1036.51 -2315.1,2315.1 0,1278.59 1036.51,2315.1 2315.1,2315.1 1278.59,0 2315.1,-1036.51 2315.1,-2315.1l-4.69 -2520.87c512.43,343.61 1121.94,529.96 1745.66,529.96l-30.08 -1278.82c-947.37,0 -1715.36,-767.99 -1715.36,-1715.36l-1265.63 -8.94 -4.31 4994.03c0,574.76 -465.93,1040.69 -1040.69,1040.69 -574.76,0 -1040.69,-465.93 -1040.69,-1040.69 0,-574.76 465.93,-1040.69 1040.69,-1040.69 109.21,0 217.73,17.19 321.59,50.93l0.61 -1302.81z"/>
  <path class="fil1" d="M9620.5 9191.2c-106.74,-15 -214.41,-22.53 -322.2,-22.53 -1278.59,0 -2315.1,1036.51 -2315.1,2315.1 0,1278.59 1036.51,2315.1 2315.1,2315.1 1278.59,0 2315.1,-1036.51 2315.1,-2315.1l-4.69 -2520.87c512.43,343.61 1121.94,529.96 1745.66,529.96l-30.08 -1278.82c-947.37,0 -1715.36,-767.99 -1715.36,-1715.36l-1265.63 -8.94 -4.31 4994.03c0,574.76 -465.93,1040.69 -1040.69,1040.69 -574.76,0 -1040.69,-465.93 -1040.69,-1040.69 0,-574.76 465.93,-1040.69 1040.69,-1040.69 109.21,0 217.73,17.19 321.59,50.93l0.61 -1302.81z"/>
  <path class="fil2 str0" d="M10343.3 6489.74l-4.31 4994.03c0,574.76 -465.93,1040.69 -1040.69,1040.69 -320.88,0 -607.83,-145.22 -798.74,-373.52 -351.62,-167.01 -594.73,-525.4 -594.73,-940.57 0,-574.76 465.93,-1040.69 1040.69,-1040.69 109.21,0 217.73,17.19 321.59,50.93l0.49 -1051.74c-1264.44,16.43 -2284.4,1046.56 -2284.4,2314.9 0,664.46 279.93,1263.53 728.28,1685.74 357.22,225.48 780.39,355.96 1234.04,355.96 1278.59,0 2315.1,-1036.51 2315.1,-2315.1l-4.69 -2520.87c512.43,343.61 1121.94,529.96 1745.66,529.96l-24.48 -1040.57c-336.58,-69.18 -637.18,-236.96 -870.29,-471.81 -434.6,-254.15 -747.35,-694.03 -829.37,-1210.74l-934.15 -6.6z"/>
 </g>
</svg>
